<svg xmlns="http://www.w3.org/2000/svg" viewBox="-216 -132 432 264"><title>NSB</title><defs><mask id="knavy" maskUnits="userSpaceOnUse" x="-500" y="-500" width="1000" height="1000"><rect x="-500" y="-500" width="1000" height="1000" fill="#fff"/><path d="M-15.136 -27.52640000000001Q-15.136 -21.753600000000006 -12.2496 -17.600000000000005Q-9.363199999999999 -13.446400000000004 -4.857599999999998 -10.348800000000004Q-0.35199999999999676 -7.251200000000004 4.716800000000006 -4.153600000000004Q9.926400000000001 -1.1968000000000032 14.784000000000002 2.1823999999999977Q19.641600000000004 5.5615999999999985 22.809600000000003 10.207999999999998Q25.977600000000002 14.854399999999998 25.977600000000002 21.6128Q25.977600000000002 28.371199999999998 22.5984 33.792Q19.2192 39.2128 12.812800000000003 42.4512Q6.406400000000005 45.6896 -3.0272000000000006 45.6896Q-6.406399999999998 45.6896 -9.715199999999998 45.196799999999996Q-13.023999999999997 44.704 -16.3328 43.577600000000004Q-19.641599999999997 42.4512 -22.88 40.7616Q-23.584 40.3392 -23.7952 39.705600000000004Q-24.0064 39.072 -24.147199999999998 38.0864L-25.9776 18.9376Q-25.9776 18.656 -25.9776 18.374399999999998Q-25.695999999999998 18.2336 -25.2736 18.092799999999997Q-24.5696 18.092799999999997 -24.4288 18.656Q-23.443199999999997 22.88 -21.6128 27.244799999999998Q-19.7824 31.6096 -16.825599999999998 35.270399999999995Q-13.868799999999997 38.9312 -9.644799999999996 41.184Q-5.420799999999996 43.4368 0.21120000000000516 43.4368Q4.294400000000003 43.4368 8.166400000000003 41.888Q12.038400000000003 40.3392 14.502400000000002 36.819199999999995Q16.9664 33.2992 16.9664 27.244799999999998Q16.9664 20.345599999999997 13.939200000000003 15.769599999999997Q10.912000000000006 11.193599999999996 6.265600000000003 7.814399999999996Q1.6191999999999993 4.435199999999995 -3.590399999999999 1.4784000000000006Q-8.5184 -1.6191999999999993 -13.094399999999998 -4.8576000000000015Q-17.670399999999997 -8.096000000000004 -20.556799999999996 -12.531200000000002Q-23.443199999999997 -16.9664 -23.443199999999997 -23.584000000000003Q-23.443199999999997 -31.046400000000006 -19.641599999999997 -35.904Q-15.84 -40.7616 -9.785599999999999 -43.1552Q-3.7311999999999976 -45.5488 2.745600000000003 -45.5488Q6.688000000000002 -45.5488 10.912000000000003 -44.7744Q15.136000000000003 -44.0 19.2192 -42.1696Q20.345600000000005 -41.74720000000001 20.838400000000004 -41.113600000000005Q21.331200000000003 -40.480000000000004 21.331200000000003 -39.77600000000001L22.3168 -23.724800000000002Q22.3168 -23.161600000000007 21.612800000000004 -23.091200000000008Q20.908800000000006 -23.02080000000001 20.627200000000002 -23.584000000000003Q20.345600000000005 -26.400000000000006 19.078400000000006 -29.849600000000002Q17.811200000000007 -33.2992 15.417600000000004 -36.3968Q13.024000000000001 -39.4944 9.363200000000003 -41.4656Q5.702400000000004 -43.436800000000005 0.49280000000000257 -43.436800000000005Q-4.998399999999997 -43.436800000000005 -8.447999999999997 -41.113600000000005Q-11.897599999999997 -38.790400000000005 -13.516799999999998 -35.2Q-15.136 -31.6096 -15.136 -27.52640000000001Z" fill="#000" stroke="#000" stroke-width="8"/></mask><mask id="dnavy" maskUnits="userSpaceOnUse" x="-300" y="-200" width="600" height="400"><rect x="-300" y="-200" width="600" height="400" fill="#fff"/><polygon points="0,-127.3 8.8,-120 0,-112.7 -8.8,-120" fill="#000"/><polygon points="0,112.7 8.8,120 0,127.3 -8.8,120" fill="#000"/></mask></defs><g mask="url(#dnavy)"><polygon points="-176.0,-120.0 176.0,-120.0 210.0,-86.0 210.0,86.0 176.0,120.0 -176.0,120.0 -210.0,86.0 -210.0,-86.0" fill="none" stroke="#001E44" stroke-width="3"/><polygon points="-170.0,-108.0 170.0,-108.0 198.0,-80.0 198.0,80.0 170.0,108.0 -170.0,108.0 -198.0,80.0 -198.0,-80.0" fill="none" stroke="#001E44" stroke-width="1.2"/><polygon points="-166.0,-100.0 166.0,-100.0 190.0,-76.0 190.0,76.0 166.0,100.0 -166.0,100.0 -190.0,76.0 -190.0,-76.0" fill="none" stroke="#001E44" stroke-width="0.6"/><line x1="3.6" y1="-94.3" x2="23.6" y2="-85.0" stroke="#001E44" stroke-width="0.9"/><line x1="3.0" y1="-93.4" x2="12.0" y2="-85.5" stroke="#001E44" stroke-width="0.9"/><line x1="2.1" y1="-92.6" x2="14.0" y2="-74.1" stroke="#001E44" stroke-width="0.9"/><line x1="1.1" y1="-92.2" x2="4.5" y2="-80.6" stroke="#001E44" stroke-width="0.9"/><line x1="0.0" y1="-92.0" x2="0.0" y2="-70.0" stroke="#001E44" stroke-width="0.9"/><line x1="-1.1" y1="-92.2" x2="-4.5" y2="-80.6" stroke="#001E44" stroke-width="0.9"/><line x1="-2.1" y1="-92.6" x2="-14.0" y2="-74.1" stroke="#001E44" stroke-width="0.9"/><line x1="-3.0" y1="-93.4" x2="-12.0" y2="-85.5" stroke="#001E44" stroke-width="0.9"/><line x1="-3.6" y1="-94.3" x2="-23.6" y2="-85.0" stroke="#001E44" stroke-width="0.9"/><line x1="3.6" y1="94.3" x2="23.6" y2="85.0" stroke="#001E44" stroke-width="0.9"/><line x1="3.0" y1="93.4" x2="12.0" y2="85.5" stroke="#001E44" stroke-width="0.9"/><line x1="2.1" y1="92.6" x2="14.0" y2="74.1" stroke="#001E44" stroke-width="0.9"/><line x1="1.1" y1="92.2" x2="4.5" y2="80.6" stroke="#001E44" stroke-width="0.9"/><line x1="0.0" y1="92.0" x2="0.0" y2="70.0" stroke="#001E44" stroke-width="0.9"/><line x1="-1.1" y1="92.2" x2="-4.5" y2="80.6" stroke="#001E44" stroke-width="0.9"/><line x1="-2.1" y1="92.6" x2="-14.0" y2="74.1" stroke="#001E44" stroke-width="0.9"/><line x1="-3.0" y1="93.4" x2="-12.0" y2="85.5" stroke="#001E44" stroke-width="0.9"/><line x1="-3.6" y1="94.3" x2="-23.6" y2="85.0" stroke="#001E44" stroke-width="0.9"/></g><polygon points="0,-128 9.6,-120 0,-112 -9.6,-120" fill="none" stroke="#001E44" stroke-width="1.4"/><polygon points="0,112 9.6,120 0,128 -9.6,120" fill="none" stroke="#001E44" stroke-width="1.4"/><g transform="scale(0.9491)"><g transform="translate(16.16,0)"><g fill="#001E44"><path d="M-108.3976 32.56V-42.32000000000001Q-110.7976 -44.56 -112.8776 -45.84Q-117.1976 -48.08 -121.0376 -48.08Q-121.5176 -48.08 -121.5176 -49.04Q-121.5176 -50.0 -121.0376 -50.0Q-118.1576 -50.0 -115.1976 -49.84Q-112.2376 -49.68000000000001 -109.8376 -49.68000000000001Q-106.9576 -49.68000000000001 -104.3976 -49.84Q-101.8376 -50.0 -100.55760000000001 -50.0Q-98.4776 -50.0 -97.6776 -48.160000000000004Q-96.8776 -46.32000000000001 -93.0376 -41.68000000000001L-31.437600000000003 34.0V-32.400000000000006Q-31.437600000000003 -40.72 -34.2376 -44.4Q-37.0376 -48.08 -43.5976 -48.08Q-43.91759999999999 -48.08 -43.91759999999999 -49.04Q-43.91759999999999 -50.0 -43.5976 -50.0Q-40.3976 -50.0 -36.9576 -49.76Q-33.5176 -49.519999999999996 -29.5176 -49.519999999999996Q-25.677599999999998 -49.519999999999996 -21.9176 -49.76Q-18.157600000000002 -50.0 -14.9576 -50.0Q-14.477599999999995 -50.0 -14.477599999999995 -49.04Q-14.477599999999995 -48.08 -14.9576 -48.08Q-21.837599999999995 -48.08 -24.797599999999996 -44.4Q-27.757599999999996 -40.72 -27.757599999999996 -32.400000000000006V51.92Q-27.757599999999996 52.24 -28.557599999999994 52.32Q-29.35759999999999 52.4 -29.677599999999998 52.24L-103.2776 -36.879999999999995Q-104.0776 -37.84 -104.7176 -38.64V32.56Q-104.7176 40.879999999999995 -101.83760000000001 44.48Q-98.9576 48.08 -92.2376 48.08Q-91.7576 48.08 -91.7576 49.04Q-91.7576 50.0 -92.2376 50.0Q-95.4376 50.0 -98.7976 49.84Q-102.1576 49.68 -106.3176 49.68Q-110.3176 49.68 -113.9976 49.84Q-117.6776 50.0 -121.0376 50.0Q-121.3576 50.0 -121.3576 49.04Q-121.3576 48.08 -121.0376 48.08Q-113.9976 48.08 -111.1976 44.48Q-108.3976 40.879999999999995 -108.3976 32.56Z" mask="url(#knavy)"/><path d="M61.037600000000005 -6.32Q68.39760000000001 -5.840000000000003 74.3176 -2.960000000000001Q81.35759999999999 0.5600000000000023 85.27759999999999 6.640000000000001Q89.1976 12.719999999999999 89.1976 20.56Q89.1976 29.04 85.0376 35.92Q80.8776 42.8 73.5976 46.72Q66.3176 50.64 57.3576 50.64Q52.2376 50.64 45.7576 50.16Q39.2776 49.68 33.8376 49.68Q28.5576 49.68 23.6776 49.84Q18.797600000000003 50.0 14.7976 50.0Q14.4776 50.0 14.4776 49.04Q14.4776 48.08 14.7976 48.08Q20.5576 48.08 23.5976 47.28Q26.6376 46.48 27.7576 44.08Q28.8776 41.68 28.8776 37.04V-37.040000000000006Q28.8776 -41.68000000000001 27.837600000000002 -44.00000000000001Q26.7976 -46.32000000000001 23.837600000000002 -47.2Q20.8776 -48.08 15.1176 -48.08Q14.637599999999999 -48.08 14.637599999999999 -49.04Q14.637599999999999 -50.0 15.1176 -50.0Q18.9576 -50.0 23.7576 -49.76Q28.5576 -49.519999999999996 33.8376 -49.519999999999996Q37.997600000000006 -49.519999999999996 43.4376 -50.0Q48.8776 -50.480000000000004 52.717600000000004 -50.480000000000004Q62.1576 -50.480000000000004 68.0776 -47.68Q73.9976 -44.879999999999995 76.7976 -40.08Q79.5976 -35.28 79.5976 -29.36Q79.5976 -20.239999999999995 73.0376 -13.840000000000003Q68.0776 -9.04 61.037600000000005 -6.32ZM54.9576 47.76Q66.9576 47.76 72.4776 41.599999999999994Q77.9976 35.44 77.9976 24.56Q77.9976 12.560000000000002 70.9576 4.879999999999999Q63.9176 -2.8000000000000043 51.2776 -2.8000000000000043Q47.2776 -2.960000000000001 43.1176 -2.8000000000000043Q41.0376 -2.8000000000000043 39.117599999999996 -2.480000000000004V37.04Q39.117599999999996 40.879999999999995 40.2376 43.28Q41.3576 45.68 44.7976 46.72Q48.2376 47.76 54.9576 47.76ZM49.1976 -48.08Q45.5176 -48.08 43.2776 -47.44Q41.0376 -46.8 40.0776 -44.48Q39.117599999999996 -42.16 39.117599999999996 -36.72V-6.32Q41.0376 -6.32 42.4776 -6.32Q45.8376 -6.160000000000004 46.3176 -6.160000000000004Q58.6376 -6.160000000000004 63.91759999999999 -12.48Q69.1976 -18.799999999999997 69.1976 -28.08Q69.1976 -33.68000000000001 67.1976 -38.24Q65.1976 -42.8 60.8776 -45.44Q56.5576 -48.08 49.1976 -48.08Z" mask="url(#knavy)"/><path d="M-15.136 -27.52640000000001Q-15.136 -21.753600000000006 -12.2496 -17.600000000000005Q-9.363199999999999 -13.446400000000004 -4.857599999999998 -10.348800000000004Q-0.35199999999999676 -7.251200000000004 4.716800000000006 -4.153600000000004Q9.926400000000001 -1.1968000000000032 14.784000000000002 2.1823999999999977Q19.641600000000004 5.5615999999999985 22.809600000000003 10.207999999999998Q25.977600000000002 14.854399999999998 25.977600000000002 21.6128Q25.977600000000002 28.371199999999998 22.5984 33.792Q19.2192 39.2128 12.812800000000003 42.4512Q6.406400000000005 45.6896 -3.0272000000000006 45.6896Q-6.406399999999998 45.6896 -9.715199999999998 45.196799999999996Q-13.023999999999997 44.704 -16.3328 43.577600000000004Q-19.641599999999997 42.4512 -22.88 40.7616Q-23.584 40.3392 -23.7952 39.705600000000004Q-24.0064 39.072 -24.147199999999998 38.0864L-25.9776 18.9376Q-25.9776 18.656 -25.9776 18.374399999999998Q-25.695999999999998 18.2336 -25.2736 18.092799999999997Q-24.5696 18.092799999999997 -24.4288 18.656Q-23.443199999999997 22.88 -21.6128 27.244799999999998Q-19.7824 31.6096 -16.825599999999998 35.270399999999995Q-13.868799999999997 38.9312 -9.644799999999996 41.184Q-5.420799999999996 43.4368 0.21120000000000516 43.4368Q4.294400000000003 43.4368 8.166400000000003 41.888Q12.038400000000003 40.3392 14.502400000000002 36.819199999999995Q16.9664 33.2992 16.9664 27.244799999999998Q16.9664 20.345599999999997 13.939200000000003 15.769599999999997Q10.912000000000006 11.193599999999996 6.265600000000003 7.814399999999996Q1.6191999999999993 4.435199999999995 -3.590399999999999 1.4784000000000006Q-8.5184 -1.6191999999999993 -13.094399999999998 -4.8576000000000015Q-17.670399999999997 -8.096000000000004 -20.556799999999996 -12.531200000000002Q-23.443199999999997 -16.9664 -23.443199999999997 -23.584000000000003Q-23.443199999999997 -31.046400000000006 -19.641599999999997 -35.904Q-15.84 -40.7616 -9.785599999999999 -43.1552Q-3.7311999999999976 -45.5488 2.745600000000003 -45.5488Q6.688000000000002 -45.5488 10.912000000000003 -44.7744Q15.136000000000003 -44.0 19.2192 -42.1696Q20.345600000000005 -41.74720000000001 20.838400000000004 -41.113600000000005Q21.331200000000003 -40.480000000000004 21.331200000000003 -39.77600000000001L22.3168 -23.724800000000002Q22.3168 -23.161600000000007 21.612800000000004 -23.091200000000008Q20.908800000000006 -23.02080000000001 20.627200000000002 -23.584000000000003Q20.345600000000005 -26.400000000000006 19.078400000000006 -29.849600000000002Q17.811200000000007 -33.2992 15.417600000000004 -36.3968Q13.024000000000001 -39.4944 9.363200000000003 -41.4656Q5.702400000000004 -43.436800000000005 0.49280000000000257 -43.436800000000005Q-4.998399999999997 -43.436800000000005 -8.447999999999997 -41.113600000000005Q-11.897599999999997 -38.790400000000005 -13.516799999999998 -35.2Q-15.136 -31.6096 -15.136 -27.52640000000001Z"/></g></g></g></svg>